<svg xmlns="http://www.w3.org/2000/svg" xmlns:xlink="http://www.w3.org/1999/xlink" id="Layer_1" x="0px" y="0px" viewBox="0 0 254 50" style="enable-background:new 0 0 254 50;" xml:space="preserve"><style type="text/css">	.st0{fill:url(#SVGID_1_);}	.st1{fill:url(#SVGID_2_);}	.st2{fill:url(#SVGID_3_);}	.st3{fill:url(#SVGID_4_);}	.st4{fill:url(#SVGID_5_);}	.st5{fill:url(#SVGID_6_);}	.st6{fill:url(#SVGID_7_);}	.st7{fill:url(#SVGID_8_);}	.st8{fill:url(#SVGID_9_);}	.st9{fill:url(#SVGID_10_);}	.st10{fill:url(#SVGID_11_);}	.st11{fill:#636255;}	.st12{fill:#9D9D9E;}</style><g>	<g>		<g>							<linearGradient id="SVGID_1_" gradientUnits="userSpaceOnUse" x1="-9.4326" y1="-664.7849" x2="40.8615" y2="-715.0848" gradientTransform="matrix(1 0 0 -1 0 -664.72)">				<stop offset="0" style="stop-color:#005CA9"/>				<stop offset="1" style="stop-color:#E8308A"/>			</linearGradient>			<path class="st0" d="M12.2,10.2L12.2,10.2c1.2,0,2.3,1,2.3,2.3V31c0,1.2-1,2.3-2.3,2.3l0,0c-1.2,0-2.3-1-2.3-2.3V12.5    C9.9,11.2,10.9,10.2,12.2,10.2z"/>							<linearGradient id="SVGID_2_" gradientUnits="userSpaceOnUse" x1="-14.0924" y1="-669.4445" x2="36.2016" y2="-719.7445" gradientTransform="matrix(1 0 0 -1 0 -664.72)">				<stop offset="0" style="stop-color:#005CA9"/>				<stop offset="1" style="stop-color:#E8308A"/>			</linearGradient>			<path class="st1" d="M5.4,12.7V31c0,1.2-1,2.3-2.3,2.3l0,0c-1.2,0-2.3-1-2.3-2.3V12.7c0-1.2,1-2.3,2.3-2.3l0,0    C4.2,10.4,5.4,11.5,5.4,12.7z"/>							<linearGradient id="SVGID_3_" gradientUnits="userSpaceOnUse" x1="-0.2097" y1="-655.5618" x2="50.0903" y2="-705.8558" gradientTransform="matrix(1 0 0 -1 0 -664.72)">				<stop offset="0" style="stop-color:#005CA9"/>				<stop offset="1" style="stop-color:#E8308A"/>			</linearGradient>			<circle class="st2" cx="12.2" cy="3.3" r="2.3"/>							<linearGradient id="SVGID_4_" gradientUnits="userSpaceOnUse" x1="-18.6589" y1="-674.011" x2="31.6411" y2="-724.311" gradientTransform="matrix(1 0 0 -1 0 -664.72)">				<stop offset="0" style="stop-color:#005CA9"/>				<stop offset="1" style="stop-color:#E8308A"/>			</linearGradient>			<circle class="st3" cx="12.2" cy="40.2" r="2.3"/>							<linearGradient id="SVGID_5_" gradientUnits="userSpaceOnUse" x1="-9.4071" y1="-664.7592" x2="40.887" y2="-715.0592" gradientTransform="matrix(1 0 0 -1 0 -664.72)">				<stop offset="0" style="stop-color:#005CA9"/>				<stop offset="1" style="stop-color:#E8308A"/>			</linearGradient>			<path class="st4" d="M21.4,19.4L21.4,19.4c1.2,0,2.3,1,2.3,2.3v18.4c0,1.2-1,2.3-2.3,2.3l0,0c-1.2,0-2.3-1-2.3-2.3V21.7    C19.1,20.5,20.1,19.4,21.4,19.4z"/>							<linearGradient id="SVGID_6_" gradientUnits="userSpaceOnUse" x1="4.3911" y1="-650.9611" x2="54.6911" y2="-701.261" gradientTransform="matrix(1 0 0 -1 0 -664.72)">				<stop offset="0" style="stop-color:#005CA9"/>				<stop offset="1" style="stop-color:#E8308A"/>			</linearGradient>			<circle class="st5" cx="21.4" cy="3.3" r="2.3"/>							<linearGradient id="SVGID_7_" gradientUnits="userSpaceOnUse" x1="-0.2102" y1="-655.5624" x2="50.0898" y2="-705.8564" gradientTransform="matrix(1 0 0 -1 0 -664.72)">				<stop offset="0" style="stop-color:#005CA9"/>				<stop offset="1" style="stop-color:#E8308A"/>			</linearGradient>			<circle class="st6" cx="21.4" cy="12.5" r="2.3"/>							<linearGradient id="SVGID_8_" gradientUnits="userSpaceOnUse" x1="4.3911" y1="-650.9611" x2="54.6911" y2="-701.261" gradientTransform="matrix(1 0 0 -1 0 -664.72)">				<stop offset="0" style="stop-color:#005CA9"/>				<stop offset="1" style="stop-color:#E8308A"/>			</linearGradient>			<circle class="st7" cx="30.6" cy="12.5" r="2.3"/>							<linearGradient id="SVGID_9_" gradientUnits="userSpaceOnUse" x1="-0.2107" y1="-655.5629" x2="50.0892" y2="-705.8569" gradientTransform="matrix(1 0 0 -1 0 -664.72)">				<stop offset="0" style="stop-color:#005CA9"/>				<stop offset="1" style="stop-color:#E8308A"/>			</linearGradient>			<circle class="st8" cx="30.6" cy="21.7" r="2.3"/>							<linearGradient id="SVGID_10_" gradientUnits="userSpaceOnUse" x1="-4.8589" y1="-660.2111" x2="45.4411" y2="-710.511" gradientTransform="matrix(1 0 0 -1 0 -664.72)">				<stop offset="0" style="stop-color:#005CA9"/>				<stop offset="1" style="stop-color:#E8308A"/>			</linearGradient>			<circle class="st9" cx="30.6" cy="31" r="2.3"/>							<linearGradient id="SVGID_11_" gradientUnits="userSpaceOnUse" x1="4.4161" y1="-650.936" x2="54.716" y2="-701.236" gradientTransform="matrix(1 0 0 -1 0 -664.72)">				<stop offset="0" style="stop-color:#005CA9"/>				<stop offset="1" style="stop-color:#E8308A"/>			</linearGradient>			<path class="st10" d="M40,10.2L40,10.2c1.2,0,2.3,1,2.3,2.3V31c0,1.2-1,2.3-2.3,2.3l0,0c-1.2,0-2.3-1-2.3-2.3V12.5    C37.6,11.2,38.6,10.2,40,10.2z"/>		</g>		<g>			<g>				<path class="st11" d="M143.2,11.2c-2.7,0-5.1,1.3-6.5,3.4c-1.4-2.1-3.8-3.4-6.5-3.4c-4.4,0-8,3.6-8,8.2v12h3v-12     c0-2.8,2.2-5.1,5-5.1s5,2.3,5,5.1v12h3v-12c0-2.8,2.2-5.1,5-5.1s5,2.3,5,5.1v12h3v-12C151.2,14.9,147.7,11.2,143.2,11.2z"/>			</g>			<path class="st11" d="M104.2,12.8c-0.8,0.4-1.5,1-2.1,1.6v-3.1h-3.1v20h3.1v-9.9c0-1.3,0.3-2.5,1-3.6s1.5-2,2.6-2.6    c1.1-0.7,2.3-1,3.6-1h0.3v-2.9h-0.3C107.6,11.4,105.8,11.8,104.2,12.8z"/>			<path class="st11" d="M90.5,25.6c-0.5,0.8-1.2,1.4-2,1.9c-2.2,1.3-4.9,1.4-7.2,0.2c-1.1-0.5-2-1.4-2.6-2.4c-0.7-0.9-1-2-1.1-3.1    h17v-0.3c0.1-1.9-0.3-3.7-1.2-5.3c-0.9-1.5-2.1-2.9-3.6-3.8c-1.5-1-3.3-1.4-5.1-1.4c-1.7,0-3.5,0.4-5,1.3    c-1.5,0.9-2.8,2.2-3.7,3.7c-1.9,3.2-1.9,7,0,10.2c0.9,1.5,2.2,2.8,3.7,3.7c3.3,1.9,7.2,1.9,10.4-0.2c1.6-1,2.8-2.4,3.7-4.1    l0.1-0.2L90.5,25.6z M80.4,15.8c1.3-1,2.8-1.5,4.5-1.5s3.2,0.5,4.4,1.5c1.1,0.9,2,2.1,2.4,3.5H78.1    C78.4,17.9,79.2,16.7,80.4,15.8L80.4,15.8z"/>			<polygon class="st11" points="69.8,11.4 64,26.4 58,11.4 54.8,11.4 62.7,31.4 65.1,31.4 73.1,11.4    "/>			<polygon class="st11" points="238.8,11.4 235.1,11.4 228.9,19.1 222.9,11.4 219.2,11.4 227.2,21.4 219.2,31.4 222.9,31.4     228.9,23.7 235.1,31.4 238.8,31.4 230.9,21.4    "/>			<g>				<polygon class="st11" points="113.8,11.4 113.8,31.4 116.8,31.4 116.8,11.4     "/>				<circle class="st11" cx="115.2" cy="5.2" r="2"/>			</g>			<path class="st11" d="M202.9,12.8c-0.8,0.4-1.5,1-2.1,1.6v-3.1h-3.1v20h3.1v-9.9c0-1.3,0.3-2.5,1-3.6s1.5-2,2.6-2.6    c1.1-0.7,2.3-1,3.6-1h0.3v-2.9H208C206.1,11.4,204.4,11.8,202.9,12.8z"/>			<path class="st11" d="M172.9,11.4v2.9l-0.1-0.1c-4-3.9-10.5-3.9-14.4,0.1c-1.9,2-2.9,4.5-2.9,7.1s1,5.1,2.9,7.1    c3.9,4,10.4,4,14.4,0.1l0.1-0.1v2.8h2.9v-20h-2.9V11.4z M165.8,28.5c-3.9,0-7.1-3.1-7.2-7.1c0.1-4,3.3-7.1,7.2-7.1    c4,0,7.2,3.1,7.2,7.1S169.8,28.5,165.8,28.5z"/>			<path class="st11" d="M191.2,27.9c-0.5,0.4-1.2,0.6-1.9,0.6c-0.1,0-0.1,0-0.2,0c-1.5-0.1-2.9-1.4-2.9-3c0-0.5,0-1,0-1.6    c0-0.4,0-5.1,0-9.6h5.8v-3.1h-5.8c0-3.1,0-5.5,0-5.6h-3.1c0,0,0,2.5,0,5.6h-3.7v3.1h3.7c0,4.8,0,9.9,0,10.3c0,0.5,0,1,0,1.5    c0.2,1.5,1,2.8,2.1,3.8s2.6,1.5,4.1,1.5c1.6,0,3-0.6,4.1-1.6L191.2,27.9z"/>			<g>				<polygon class="st11" points="212.2,11.4 212.2,31.4 215.2,31.4 215.2,11.4     "/>				<circle class="st11" cx="213.8" cy="5.2" r="2"/>			</g>		</g>		<g>			<path class="st12" d="M65.8,45.5c0,1.9-1.7,3.5-3.7,3.5h-2.4v-7h2.4C64.1,42.1,65.8,43.6,65.8,45.5z M64.6,45.5    c0-1.3-1.1-2.4-2.5-2.4h-1.2v4.7h1.2C63.5,47.9,64.6,46.9,64.6,45.5z"/>			<path class="st12" d="M72.7,49L71,46.1h-1.3V49h-1.2v-7h2.9c1.2,0,2.2,0.9,2.2,2c0,0.8-0.5,1.5-1.3,1.9l1.9,3.1H72.7z M69.6,45    h1.7c0.5,0,1-0.4,1-0.9c0-0.5-0.4-0.9-1-0.9h-1.7V45z"/>			<path class="st12" d="M76.5,42h1.2v7h-1.2V42z"/>			<path class="st12" d="M86.8,42.1l-3,7h-0.9l-2.9-7h1.3l2.1,5l2.1-5H86.8z"/>			<path class="st12" d="M89.1,42h1.2v7h-1.2V42z"/>			<path class="st12" d="M99,42.1v7h-0.9l-3.6-4.7V49h-1.2v-7h0.9l3.5,4.7v-4.7H99z"/>			<path class="st12" d="M105.3,49c-2,0-3.7-1.6-3.7-3.5c0-1.9,1.6-3.5,3.7-3.5c1.5,0,2.8,0.8,3.4,2.2l-1.1,0.7    c-0.2-1-1.3-1.7-2.4-1.7c-1.4,0-2.5,1-2.5,2.4c0,1.3,1.1,2.4,2.5,2.4c1,0,1.9-0.6,2.3-1.4h-2.7v-1.1h4.1    C109,47.5,107.4,49,105.3,49z"/>			<path class="st12" d="M121.2,43.2h-2.5V49h-1.2v-5.8H115v-1.1h6.2V43.2z"/>			<path class="st12" d="M127.8,49l-1.8-2.9h-1.3V49h-1.2v-7h2.9c1.2,0,2.2,0.9,2.2,2c0,0.8-0.5,1.5-1.3,1.9l1.9,3.1H127.8z     M124.7,45h1.7c0.5,0,1-0.4,1-0.9c0-0.5-0.4-0.9-1-0.9h-1.7V45z"/>			<path class="st12" d="M131.4,46.3v-4.3h1.2v4.3c0,0.9,0.7,1.6,1.7,1.6c0.9,0,1.7-0.7,1.7-1.6v-4.3h1.2v4.3c0,1.5-1.3,2.7-2.9,2.7    C132.6,49,131.4,47.8,131.4,46.3z"/>			<path class="st12" d="M139.5,47.7l1.1-0.5c0.3,0.5,0.9,0.7,1.5,0.7c0.9,0,1.3-0.4,1.3-0.9c0-0.6-0.7-0.8-1.5-0.9    c-1-0.2-2.4-0.6-2.4-2c0-1.2,0.9-2,2.4-2c1,0,1.8,0.4,2.3,1.1l-1,0.6c-0.2-0.4-0.7-0.6-1.3-0.6c-0.8,0-1.2,0.3-1.2,0.9    c0,0.3,0.2,0.6,0.8,0.8c0.5,0.2,0.9,0.2,1.4,0.3c0.8,0.2,1.7,0.7,1.7,1.9c0,1.2-1,2-2.5,2C141,49,140,48.6,139.5,47.7z"/>			<path class="st12" d="M152.7,43.2h-2.5V49H149v-5.8h-2.5v-1.1h6.2V43.2z"/>		</g>	</g>	<g>		<path class="st11" d="M245.8,26.1h-2.1v5.3h-1v-5.3h-2.1v-1h5.3V26.1z"/>		<path class="st11" d="M253.2,25.1v6.3h-1v-3.9l-1.8,3.1h-0.6l-1.8-3.2v3.9h-1v-6.3h0.8l2.3,4l2.3-4H253.2z"/>	</g></g></svg>