<svg width="190" height="21" viewBox="0 0 190 21" fill="none" xmlns="http://www.w3.org/2000/svg">
<path d="M112.215 0.724609H110.199V19.7244H123.499V17.6979H112.215V0.724609Z" fill="white"/>
<path d="M137.149 0.724609L128.25 19.7244H130.406L132.962 14.262H143.388L145.944 19.7244H148.2L139.276 0.724609H137.144H137.149ZM133.79 12.4006L138.103 3.10514H138.202L142.54 12.4006H133.79Z" fill="white"/>
<path d="M166.208 10.0698V9.95937C168.266 9.23581 169.091 7.7114 169.091 5.66238C169.091 4.11033 168.63 2.80689 167.396 1.91763C165.752 0.807398 163.566 0.724609 160.094 0.724609H153.898V19.7244H160.97C164.544 19.7244 166.935 19.6416 168.558 18.1999C169.485 17.3936 170.048 16.2559 170.048 14.6209C170.048 11.793 168.507 10.5449 166.218 10.0698H166.208ZM155.947 2.58042H160.806C164.534 2.58042 167.027 2.85654 167.027 5.91086C167.027 8.68344 165.071 9.35186 160.806 9.35186H155.947V2.58042ZM161.758 17.8631H155.947V11.18H161.758C165.333 11.18 167.954 11.4285 167.954 14.5105C167.954 17.3107 166.101 17.8686 161.758 17.8686V17.8631Z" fill="white"/>
<path d="M184.33 9.19842C182.846 8.93361 181.584 8.69079 180.391 8.29358C178.958 7.81368 178.545 6.95856 178.545 5.60142C178.545 4.4043 178.913 3.44437 180.391 2.93687C181.267 2.67206 182.383 2.56176 183.601 2.56176C185.13 2.56176 187.006 2.69417 188.948 2.90927V0.989415C187.026 0.829408 185.301 0.724609 183.626 0.724609C182.217 0.724609 180.417 0.857012 179.104 1.52453C177.207 2.45684 176.699 4.1892 176.699 5.84424C176.699 9.12111 178.57 10.1913 182.147 10.859C183.777 11.1789 184.868 11.3665 186.232 11.7913C187.69 12.2988 188.128 13.2035 188.128 14.5882C188.128 15.8406 187.766 16.9329 186.257 17.4128C185.331 17.7052 184.164 17.81 182.73 17.81C181.03 17.81 178.913 17.6776 176.724 17.4625V19.4596C178.913 19.6196 180.859 19.7244 182.776 19.7244C184.38 19.7244 186.156 19.592 187.494 18.8968C189.461 17.9093 189.999 16.1219 189.999 14.4172C189.999 10.9802 188.032 9.83283 184.335 9.19292L184.33 9.19842Z" fill="white"/>
<path d="M6.20761 12.7204H12.0709V7.94227H6.20761V5.56729H15.1992V0.724609H0.949219V12.7245H6.20761V12.7204Z" fill="white"/>
<path d="M15.1984 15.7246H6.64844V20.7245H15.1984V15.7246Z" fill="white"/>
<path d="M26.0995 10.5093C26.0995 10.5093 26.4812 11.403 26.8923 12.0195L32.5301 20.7202H37.0484V0.724609H31.8474V11.0927C31.8474 11.0927 31.4657 10.1991 31.0546 9.58258L25.4167 0.728751H20.8984V20.7244H26.0995V10.5135V10.5093Z" fill="white"/>
<path d="M73.1352 0.724609C67.4477 0.724609 63.6484 5.17084 63.6484 10.6954C63.6484 16.2201 67.4477 20.7244 73.1352 20.7244C78.8227 20.7244 82.6484 16.2781 82.6484 10.6954C82.6484 5.11278 78.8188 0.724609 73.1352 0.724609ZM73.1352 15.5896C70.7569 15.5896 69.0624 13.5614 69.0624 10.6954C69.0624 7.82947 70.8936 5.85933 73.1352 5.85933C75.5401 5.85933 77.2345 7.88753 77.2345 10.6954C77.2345 13.5034 75.5401 15.5896 73.1352 15.5896Z" fill="white"/>
<path d="M99.19 14.7712C101.109 13.3223 102.07 10.9418 102.07 8.62762C102.07 4.27247 99.19 0.724609 93.5748 0.724609H85.5033V5.71316H90.8657V5.69246H93.6583C95.2661 5.69246 96.3941 6.98823 96.3941 8.62348C96.3941 10.2587 95.2928 11.5545 93.6282 11.5545H93.0834V11.5711H85.5V20.7202H90.8615V16.5224H93.0642C93.5148 16.5224 93.8243 16.4934 94.3883 16.4313L96.4775 20.7244H102.6L99.1867 14.7671L99.19 14.7712Z" fill="white"/>
<path d="M5.7 17.7246C5.7 16.0683 4.42352 14.7246 2.85 14.7246C1.27648 14.7246 0 16.0683 0 17.7246C0 19.3809 1.27648 20.7245 2.85 20.7245C4.42352 20.7245 5.7 19.3809 5.7 17.7246Z" fill="#00F078"/>
<path d="M50.1611 0.724609H42.75V13.0786H47.9643V5.69351H49.966C52.6265 5.69351 54.3303 7.85321 54.3303 10.7245C54.3303 13.5958 52.6303 15.7555 49.966 15.7555H42.75V20.7244H50.1611C56.115 20.7244 59.85 16.1899 59.85 10.7287C59.85 5.26738 56.1187 0.732867 50.1611 0.732867V0.724609Z" fill="white"/>
</svg>
